<svg width="20" height="20" viewBox="0 0 20 20" fill="none" xmlns="http://www.w3.org/2000/svg">
<path d="M6.72513 10.4555L13.6914 17.093C13.8076 17.2038 13.962 17.2656 14.1226 17.2656C14.2832 17.2656 14.4376 17.2038 14.5539 17.093L14.5614 17.0855C14.6179 17.0318 14.6629 16.9671 14.6937 16.8955C14.7245 16.8238 14.7403 16.7466 14.7403 16.6686C14.7403 16.5906 14.7245 16.5135 14.6937 16.4418C14.6629 16.3701 14.6179 16.3055 14.5614 16.2518L8.00138 10.0018L14.5614 3.75426C14.6179 3.70054 14.6629 3.63588 14.6937 3.56422C14.7245 3.49255 14.7403 3.41537 14.7403 3.33738C14.7403 3.25939 14.7245 3.18221 14.6937 3.11055C14.6629 3.03888 14.6179 2.97422 14.5614 2.92051L14.5539 2.91301C14.4376 2.8022 14.2832 2.74039 14.1226 2.74039C13.962 2.74039 13.8076 2.8022 13.6914 2.91301L6.72513 9.55051C6.66386 9.60888 6.61509 9.67908 6.58176 9.75686C6.54843 9.83465 6.53125 9.91839 6.53125 10.003C6.53125 10.0876 6.54843 10.1714 6.58176 10.2491C6.61509 10.3269 6.66386 10.3971 6.72513 10.4555Z" fill="#A68E74"/>
</svg>
