<svg width="56" height="40" viewBox="0 0 56 40" fill="none" xmlns="http://www.w3.org/2000/svg">
<path d="M56 20.564C55.5538 21.6939 54.6614 22.1459 53.3227 22.1459C38.1514 22.1459 22.757 22.1459 7.58566 22.1459C7.36255 22.1459 7.13944 22.1459 6.69323 22.1459C6.91633 22.3719 7.13944 22.5979 7.13944 22.5979C11.6016 27.1177 16.2868 31.8634 20.749 36.3832C21.4183 37.0612 21.6414 37.7391 21.4183 38.6431C20.9721 39.999 19.4104 40.451 18.2948 39.547C18.0717 39.3211 18.0717 39.3211 17.8486 39.0951C12.0478 33.2194 6.47012 27.5696 0.669323 21.6939C-0.446217 20.564 -0.446217 19.434 0.669323 18.3041C6.47012 12.4284 12.0478 6.77868 17.8486 0.902977C18.5179 0.22501 19.1872 -0.000980377 19.8566 0.225006C21.1952 0.676987 21.8645 2.03292 20.9721 3.38885C20.749 3.61484 20.5259 3.84083 20.5259 4.06682C16.0637 8.58659 11.6016 13.1064 7.13944 17.6261C6.91633 17.8521 6.69322 17.8521 6.47012 17.8521C6.47012 17.8521 6.47012 18.0781 6.69323 18.0781C6.91633 18.0781 7.13944 18.0781 7.36255 18.0781C22.5339 18.0781 37.9283 18.0781 53.0996 18.0781C54.6614 18.0781 55.5538 18.3041 56 19.66C56 19.886 56 20.112 56 20.564Z" fill="#A68E74"/>
</svg>
