<svg width="56" height="40" viewBox="0 0 56 40" fill="none" xmlns="http://www.w3.org/2000/svg">
<g clip-path="url(#clip0_1_668)">
<path d="M0 19.436C0.446215 18.3061 1.33865 17.8541 2.67729 17.8541C17.8486 17.8541 33.243 17.8541 48.4143 17.8541C48.6375 17.8541 48.8606 17.8541 49.3068 17.8541C49.0837 17.6281 48.8606 17.4021 48.8606 17.4021C44.3984 12.8823 39.7132 8.13657 35.251 3.6168C34.5817 2.93883 34.3586 2.26087 34.5817 1.35691C35.0279 0.000979392 36.5896 -0.450998 37.7052 0.452957C37.9283 0.678945 37.9283 0.678945 38.1514 0.904934C43.9522 6.78064 49.5299 12.4304 55.3307 18.3061C56.4462 19.436 56.4462 20.566 55.3307 21.6959C49.5299 27.5716 43.9522 33.2213 38.1514 39.097C37.4821 39.775 36.8128 40.001 36.1434 39.775C34.8048 39.323 34.1355 37.9671 35.0279 36.6112C35.251 36.3852 35.4741 36.1592 35.4741 35.9332C39.9363 31.4134 44.3984 26.8936 48.8606 22.3739C49.0837 22.1479 49.3068 22.1479 49.5299 22.1479C49.5299 22.1479 49.5299 21.9219 49.3068 21.9219C49.0837 21.9219 48.8606 21.9219 48.6375 21.9219C33.4661 21.9219 18.0717 21.9219 2.9004 21.9219C1.33865 21.9219 0.446215 21.6959 0 20.34C0 20.114 0 19.888 0 19.436Z" fill="#A68E74"/>
</g>
<defs>
<clipPath id="clip0_1_668">
<rect width="56" height="40" fill="white"/>
</clipPath>
</defs>
</svg>
