<svg width="23" height="22" viewBox="0 0 23 22" fill="none" xmlns="http://www.w3.org/2000/svg">
<path d="M18.1203 4.47805C17.2843 3.63351 16.2884 2.96391 15.1908 2.50828C14.0932 2.05266 12.9159 1.82013 11.7276 1.82427C6.74832 1.82427 2.69014 5.88245 2.69014 10.8617C2.69014 12.4576 3.10964 14.0079 3.89392 15.3758L2.61719 20.0633L7.40492 18.8048C8.72725 19.5252 10.2137 19.9082 11.7276 19.9082C16.7068 19.9082 20.765 15.8501 20.765 10.8708C20.765 8.45415 19.8257 6.18339 18.1203 4.47805ZM11.7276 18.3762C10.3779 18.3762 9.05555 18.0114 7.89738 17.3274L7.62379 17.1633L4.77851 17.9111L5.53543 15.1387L5.35304 14.856C4.60318 13.6586 4.20502 12.2745 4.20398 10.8617C4.20398 6.72144 7.57819 3.34723 11.7184 3.34723C13.7247 3.34723 15.6125 4.13151 17.026 5.55415C17.7259 6.25084 18.2806 7.07953 18.6578 7.99218C19.0351 8.90482 19.2275 9.88327 19.2238 10.8708C19.242 15.0111 15.8678 18.3762 11.7276 18.3762ZM15.8496 12.7585C15.6216 12.6491 14.509 12.1019 14.3084 12.0199C14.0986 11.9469 13.9527 11.9104 13.7977 12.1293C13.6427 12.3573 13.214 12.868 13.0864 13.0139C12.9587 13.1689 12.8219 13.1872 12.5939 13.0686C12.3659 12.9592 11.6364 12.713 10.7791 11.9469C10.1043 11.345 9.65744 10.6063 9.52065 10.3784C9.39297 10.1504 9.50241 10.0318 9.62096 9.91327C9.72127 9.81295 9.84895 9.6488 9.95838 9.52113C10.0678 9.39345 10.1134 9.29314 10.1864 9.14723C10.2593 8.9922 10.2228 8.86453 10.1681 8.75509C10.1134 8.64566 9.65744 7.53308 9.47505 7.0771C9.29266 6.63937 9.10115 6.69408 8.96436 6.68497H8.52662C8.37159 6.68497 8.13448 6.73968 7.92473 6.96767C7.72411 7.19566 7.14046 7.74283 7.14046 8.85541C7.14046 9.96798 7.95209 11.0441 8.06153 11.19C8.17096 11.345 9.65744 13.6249 11.9191 14.6007C12.4571 14.8378 12.8766 14.9746 13.2049 15.0749C13.743 15.2482 14.2354 15.2208 14.6276 15.1661C15.0653 15.1023 15.9681 14.6189 16.1505 14.09C16.342 13.5611 16.342 13.1142 16.2782 13.0139C16.2144 12.9136 16.0776 12.868 15.8496 12.7585Z" fill="#E09132"/>
</svg>
